<svg xmlns="http://www.w3.org/2000/svg" width="175" height="175" version="1.2" viewBox="0 0 1784.88 1785"><path fill="#ffcfd2" d="M1747.25 469.703c-22.555-107.082-71.922-203.285-142.586-278.195-127.762-135.313-295.582-176.945-485.172-120.172-95.27 28.547-172.558 75.07-212.62 102.195-28.864-17.508-57.727-34.066-86.118-49.992-129.34-72.23-284.07-83.586-435.649-31.86-158.992 54.255-272.238 213.696-313.878 347.747-.95 2.836-1.895 5.832-2.997 8.672-2.05 5.363-3.945 10.882-5.523 16.402-19.559 68.445-31.387 140.832-34.855 214.797-8.204 173.637 24.918 359.414 98.421 552.133 34.7 90.996 69.086 171.11 105.204 244.918 37.539 76.96 70.347 140.832 120.507 205.175 34.067 43.684 86.75 84.532 141.008 84.532 17.98 0 36.121-4.418 53.785-14.825 30.285-17.82 48.422-45.421 61.516-65.765 25.234-38.953 50-78.695 73.973-117.176 31.863-51.254 64.828-104.402 99.054-155.023 41.485-61.664 92.43-134.051 152.367-204.391 65.297 146.195 206.465 452.148 244.793 497.566 13.723 16.243 53.786 63.871 112.305 63.871 3.152 0 6.149-.156 9.461-.472 57.887-5.047 91.957-54.41 108.203-78.223 44.48-64.66 231.547-430.539 289.906-606.855 105.676-235.14 76.024-486.055 48.895-615.059M1471.7 253.961c2.523-16.559 1.417-33.117-2.052-49.363 21.61 14.824 42.747 32.804 63.25 54.566 36.907 39.113 66.72 85.477 88.485 137.047-29.336 38.64-68.926 65.61-113.88 76.96-55.046 13.88-110.726 6.153-186.437-26.019-55.836-23.656-108.671-52.832-158.359-86.898 30.129 2.367 61.2 3.785 91.328 3.785 63.563 0 122.395-6.621 157.254-26.18 43.059-24.441 56.625-59.136 60.41-83.898m-140.38-104.875c22.555 27.758 46.371 68.289 43.059 89.734-.473 2.684-1.102 7.098-11.356 12.774-42.113 23.656-212.144 13.722-351.418-9.305-4.734-3.469-9.464-6.781-14.355-10.25 72.242-43.21 201.105-103.453 334.07-82.953M219.176 1191.37c-7.887-71.601-32.02-383.387 126.972-557.496 81.227-89.102 201.262-129.633 356.309-120.488 193.848 11.355 420.82 139.73 636.75 291.601-11.043 2.207-22.242 5.047-33.91 8.36-64.828 19.082-135.805 56.773-211.676 112.285a2851 2851 0 0 1-39.273-28.543c-100.63-73.809-204.73-150.137-372.239-150.137-124.132 0-227.761 41.633-308.043 123.64-88.96 90.997-133.125 215.743-154.89 320.778M699.3 1358.54c-35.016 52.203-68.453 105.98-100.946 158.024-23.66 38.007-48.109 77.433-72.87 115.597-8.204 12.617-18.454 28.387-28.551 34.38-11.356 6.624-44.004-15.454-67.348-45.263-44.48-56.93-73.504-113.703-109.621-187.828-7.887-16.086-15.617-32.644-23.504-49.52.789-52.199 11.516-304.847 148.266-444.257 61.988-63.086 139.59-93.836 237.382-93.836 135.332 0 218.137 60.715 314.04 131.055 5.675 4.097 11.671 8.515 17.347 12.613-8.043 6.941-16.086 13.879-24.289 21.133-123.027 109.133-219.559 243.183-289.906 347.902m627.762 277.563c-15.934 23.183-27.918 35.171-35.649 35.8-2.05.16-13.723-.316-37.695-28.703-29.653-36.43-191.485-383.543-247.637-513.176 15.773-15.773 31.863-31.226 48.738-46.21 105.047-93.36 198.739-152.66 278.39-176.157 66.563-19.554 121.77-14.508 167.669 15.614 6.781 5.203 13.562 10.406 20.348 15.453 5.675 5.047 11.355 10.41 16.718 16.246l36.434-33.278-36.434 33.278c36.278 39.582 55.047 88.472 62.461 111.023-58.36 167.485-234.226 513.18-273.343 570.11m319.714-700.375c-10.254-15.77-22.082-31.856-35.96-46.997-14.669-15.93-32.337-32.015-53.473-46.207C1286.05 636.715 976.43 430.593 708.293 414.98c-186.438-10.882-332.809 40.532-435.176 152.817-77.601 85.164-118.61 193.664-139.43 297.75-7.574-62.137-10.097-122.695-7.414-181.676 3.153-66.394 13.563-131.055 31.07-192.246.95-3.312 2.212-6.625 3.313-9.934 1.578-4.261 3.156-8.675 4.418-13.09 33.121-106.613 126.024-240.976 251.578-283.714 126.657-43.215 249.528-34.696 355.676 24.601 82.965 46.364 170.348 98.25 246.688 164.328 78.707 67.973 167.195 123.012 263.093 163.86 64.512 27.441 151.106 55.672 249.211 30.91 45.27-11.356 86.75-33.277 122.082-63.715 19.715 99.2 37.696 263.531-6.625 430.856m0 0" /></svg>