<svg xmlns="http://www.w3.org/2000/svg" width="175" viewBox="0 0 375 375" height="175" version="1.2"><path fill="#feeeef" d="M312.473 118.645c-3.371-16.012-10.758-30.395-21.328-41.594-19.11-20.23-44.211-26.453-72.57-17.965-14.25 4.266-25.813 11.223-31.805 15.277-4.317-2.617-8.637-5.093-12.883-7.476-19.344-10.797-42.492-12.496-65.164-4.762C84.94 70.238 68 94.075 61.773 114.117c-.14.422-.285.871-.449 1.297-.308.8-.59 1.625-.824 2.453-2.926 10.23-4.695 21.055-5.215 32.113-1.226 25.958 3.727 53.735 14.723 82.547 5.187 13.606 10.332 25.582 15.734 36.618 5.617 11.507 10.524 21.054 18.028 30.675 5.093 6.532 12.976 12.64 21.09 12.64 2.69 0 5.406-.66 8.046-2.218 4.531-2.664 7.242-6.789 9.203-9.832 3.774-5.824 7.477-11.765 11.063-17.52 4.766-7.66 9.7-15.609 14.816-23.175 6.207-9.219 13.828-20.043 22.793-30.559 9.766 21.856 30.883 67.602 36.617 74.39 2.051 2.43 8.043 9.552 16.797 9.552.473 0 .922-.028 1.414-.075 8.66-.753 13.758-8.132 16.188-11.691 6.652-9.668 34.633-64.371 43.363-90.73 15.809-35.157 11.371-72.672 7.313-91.957m-41.215-32.258c.375-2.473.21-4.95-.309-7.38 3.235 2.216 6.395 4.907 9.461 8.161 5.524 5.844 9.98 12.777 13.238 20.488-4.39 5.778-10.312 9.809-17.035 11.508-8.234 2.074-16.562.918-27.886-3.89-8.352-3.54-16.258-7.903-23.688-12.993 4.504.352 9.152.567 13.66.567 9.508 0 18.309-.993 23.52-3.914 6.441-3.657 8.472-8.844 9.039-12.547m-21-15.68c3.375 4.152 6.937 10.211 6.441 13.418-.07.398-.164 1.059-1.699 1.91-6.297 3.535-31.73 2.05-52.566-1.39-.707-.52-1.414-1.016-2.145-1.536 10.805-6.46 30.082-15.464 49.969-12.402M83.902 226.539c-1.18-10.703-4.789-57.32 18.993-83.351 12.152-13.32 30.105-19.38 53.296-18.012 28.996 1.695 62.95 20.89 95.247 43.594a68 68 0 0 0-5.07 1.25c-9.7 2.855-20.317 8.488-31.665 16.789a425 425 0 0 1-5.875-4.266c-15.05-11.035-30.621-22.45-55.68-22.45-18.566 0-34.066 6.227-46.078 18.489-13.304 13.602-19.91 32.254-23.168 47.957m71.82 24.992c-5.238 7.805-10.242 15.844-15.1 23.625-3.54 5.684-7.196 11.578-10.9 17.285-1.226 1.887-2.761 4.243-4.273 5.141-1.695.988-6.582-2.312-10.074-6.77-6.652-8.511-10.992-17-16.395-28.082-1.18-2.402-2.335-4.878-3.515-7.402.117-7.805 1.722-45.578 22.176-66.422 9.273-9.43 20.879-14.027 35.507-14.027 20.243 0 32.63 9.078 46.977 19.594.848.613 1.746 1.273 2.594 1.886a337 337 0 0 0-3.633 3.16c-18.402 16.317-32.844 36.356-43.363 52.012m93.9 41.5c-2.384 3.465-4.177 5.258-5.333 5.352-.305.023-2.05-.047-5.637-4.293-4.437-5.445-28.644-57.34-37.043-76.723 2.36-2.36 4.766-4.668 7.29-6.91 15.714-13.957 29.73-22.824 41.644-26.336 9.957-2.922 18.215-2.168 25.078 2.336 1.016.777 2.031 1.555 3.043 2.309a34 34 0 0 1 2.5 2.43l5.453-4.977-5.453 4.976c5.43 5.918 8.234 13.227 9.344 16.598-8.727 25.043-35.035 76.727-40.887 85.238m47.823-104.715c-1.535-2.355-3.304-4.761-5.379-7.023-2.195-2.383-4.836-4.79-8-6.91-40.578-30.77-86.89-61.586-127-63.922-27.886-1.625-49.78 6.059-65.093 22.848-11.61 12.734-17.743 28.957-20.856 44.515-1.133-9.289-1.512-18.344-1.11-27.16.47-9.926 2.028-19.594 4.65-28.742.14-.496.327-.992.491-1.488a25 25 0 0 0 .66-1.957c4.958-15.938 18.852-36.028 37.633-42.415 18.946-6.46 37.325-5.187 53.204 3.676 12.41 6.934 25.48 14.692 36.898 24.57 11.773 10.16 25.012 18.391 39.355 24.497 9.649 4.105 22.602 8.324 37.278 4.62 6.77-1.695 12.976-4.972 18.262-9.523 2.949 14.828 5.636 39.399-.993 64.414M36.262 81.8a5.2 5.2 0 0 1 1.438 2.125q.48 1.254.36 2.594-.205 2.128-2.079 4.25-.502.563-1.047 1.125-.532.55-1.047 1.125a41 41 0 0 0-1.734 2.078l-.437-.375.25-.672q.216-.516-.844-1.453L22.309 84.8q-.733-.657-1.11-.89-.387-.236-.671-.141-.28.081-.734.515l-.641.61-.562-.5a90 90 0 0 0 2.656-2.891q.75-.843 1.453-1.687.705-.843 1.437-1.672 1.502-1.701 2.875-1.953 1.362-.247 2.594.843 1.44 1.284 1.188 3.469a6 6 0 0 1-.282 1.14c-.132.344-.359.794-.671 1.344q1.029-1.012 1.717-1.453.687-.433 1.531-.61 1.719-.403 3.172.876m-1.311 2.233q-1.488-1.313-3-1.031t-3.172 2.156l-.422.485q-.2.222-.64.797l5.859 5.171q.374-.28.719-.578.339-.31.703-.718 1.465-1.653 1.437-3.312-.032-1.669-1.484-2.969m-6.547-4.765q-1.155-1.03-2.281-.813-1.139.222-2.453 1.703a19 19 0 0 0-.672.828 5.4 5.4 0 0 0-.516.813l4.516 4q.392-.42.61-.64.222-.235.421-.47 1.425-1.592 1.5-2.968.083-1.388-1.125-2.453m24.606-8.685.328 1.39q-.925 2.72-3.156 4.829-2.127 2.003-4.5 2.687-2.378.675-4.656.047-2.28-.639-4.11-2.578-3.499-3.702-2.094-8.5.862-2.84 3.282-5.125c1.28-1.219 2.898-2.281 4.843-3.187q.671 1.047 1.141 1.703.48.658 1.11 1.375l-.563.515-1.235-1.312q-.345-.358-1.171-.172-.843.188-1.844.75a8.8 8.8 0 0 0-1.89 1.39q-1.562 1.47-2.079 3.25-.528 1.783.016 3.641.534 1.847 2.093 3.5 1.66 1.768 3.641 2.422 1.981.656 4.016.14 2.028-.526 3.781-2.187 2.045-1.933 2.719-4.594Zm6.481-4.23q.357.44.28 1.062-.08.609-.53.984-.423.363-1.032.282-.61-.078-.953-.5-.376-.453-.312-1.063.06-.609.484-.953.436-.358 1.063-.313.623.049 1 .5m25.415-16.122q-.75.392-1.406.813a20 20 0 0 0-1.61 1.14L70.11 49.887l-.11.297 2.75 4.266q.528.814.844 1.172.328.347.625.312.294-.029.812-.297l1.047-.593.406.625a76 76 0 0 0-3.11 1.921q-1.5.972-3 2.032l-.406-.626.953-.703q.45-.358.61-.61.168-.264-.032-.703-.206-.435-.734-1.25l-6.047-9.36q-.53-.825-.828-1.171-.31-.341-.625-.313-.328.018-.813.313l-1.047.578-.406-.64a84 84 0 0 0 3.094-1.907 91 91 0 0 0 3.015-2.047l.407.64-.953.72c-.32.218-.532.417-.626.593q-.14.27.047.703c.125.282.368.7.72 1.25l2.89 4.454 2.125-9.391q.106-.42.125-.766.029-.357-.032-.437l-.359-.563a37 37 0 0 0 1.89-1.14 24 24 0 0 0 1.626-1.141l.406.64-.844.61q-.766.533-1.14 1.828l-2.297 8.578 11.094 2.063q.761.157 1.171.156.422-.012.657-.14l.484-.235Zm18.368-9.553q-1.422.645-2.828 1.36a94 94 0 0 0-3.047 1.64l-.343-.656 1.015-.61a2.4 2.4 0 0 0 .578-.484q.188-.246.094-.406a1.6 1.6 0 0 0-.312-.406 14 14 0 0 0-.86-.781l-2.344-2.016-6.359 3.25.156 1.797c.04.68.098 1.265.172 1.765q.122.751.25.97.122.269.438.28.31.019.906-.25l.844-.343.343.656c-.898.406-1.796.84-2.703 1.297a70 70 0 0 0-2.374 1.296l-.344-.656.797-.5q.686-.403.64-1.656l-.797-13.61q-.08-1.732-.172-2.452-.08-.734-.078-.735l.703-.36 11.75 9.813q.874.69 1.36 1.047c.32.242.586.39.797.453a.82.82 0 0 0 .593-.062l.782-.297Zm-8.874-3.031-6.156-5.156.563 8.015Zm18.441-19.365a46 46 0 0 0 1.313 3.781l-.703.281-.828-1.797q-.174-.386-.453-.468-.282-.095-.75.093l-3.579 1.407q.17.611.328 1.093.152.47.469 1.266l3.875 9.734q.34.907.593 1.329.264.408.563.437.292.018.844-.156l1.124-.36.282.704q-1.707.597-3.406 1.265a88 88 0 0 0-3.343 1.407l-.281-.703 1.078-.515c.343-.157.582-.305.718-.453q.217-.235.094-.704-.112-.468-.453-1.375l-3.875-9.735q-.281-.749-.5-1.234c-.148-.32-.312-.672-.5-1.047l-3.562 1.406q-.498.207-.626.453-.139.25-.015.672l.64 1.86-.718.28a45 45 0 0 0-.782-1.906q-.357-.778-.843-1.75l4.703-1.765 3.656-1.453Zm20.971 7.19c.082.656.188 1.32.313 1.984.125.656.289 1.336.5 2.031l-3.953 1.266a268 268 0 0 0-5.547 1.578q-1.44.439-2.89.953l-.205-.718.813-.328q.561-.215.765-.437.216-.216.156-.672-.064-.468-.343-1.39l-3.203-10.673q-.295-.937-.5-1.359-.2-.42-.5-.484-.296-.076-.86.078l-1.156.281-.219-.719q2.145-.575 4.266-1.218a204 204 0 0 0 5.469-1.72l2.984-.812q.077 1.643.704 3.718l-.844.25-.453-1.531q-.13-.405-.281-.516c-.094-.07-.297-.11-.61-.11-.417 0-.945.071-1.578.204q-.938.205-1.953.515-.815.238-1.297.391-.468.157-.796.297-.316.129-.657.328l1.922 6.344q.78-.186 1.86-.485a72 72 0 0 0 1.967-.562q.764-.232 1.094-.5.327-.264.297-.89-.001-.373-.125-.829c-.086-.3-.125-.453-.125-.453l.719-.219q.339 1.395.75 2.766.387 1.313.875 2.625l-.72.219-.187-.5a7 7 0 0 0-.359-.86q-.314-.575-.734-.593-.425-.031-1.188.203l-3.796 1.219 2 6.64c.375-.031.711-.07 1.016-.125q.468-.093 1.406-.375 1.605-.481 2.766-.922 1.17-.451 1.515-.687c.164-.102.266-.348.297-.735q.045-.574-.062-1.359l-.125-.86Zm20.207-.162q-.892.093-1.766.281-.798.176-1.625.422l-1.266-1.11-5.718-5.078q-.376-.357-.641-.578a11 11 0 0 0-.766-.578l-.078-.39.719-.141q2.11-.436 3.14-1.672 1.03-1.247.688-2.922-.329-1.56-1.531-2.187-1.189-.622-3.063-.235-.626.127-1.187.313a9.5 9.5 0 0 0-1.14.484l2.608 12.672q.198.955.375 1.406.17.44.453.516.294.083.86 0l1.187-.156.156.734a72 72 0 0 0-3.594.656 83 83 0 0 0-3.53.814l-.157-.736 1.156-.312q.562-.17.797-.36.233-.187.203-.656-.019-.48-.219-1.437l-2.249-10.906q-.2-.951-.36-1.376-.152-.435-.452-.53-.312-.107-.875 0l-1.016.124-.156-.734a107 107 0 0 0 4.219-.797 46 46 0 0 0 2.171-.484 86 86 0 0 1 2.157-.5q2.389-.482 3.765.218 1.388.707 1.75 2.453.434 2.143-1.219 3.922-.533.564-1.062.922-.533.344-1.5.813l7.016 6.062q.293.253.656.328.357.083.937 0Zm-8.986-20.703-2.578 3.968-1.656.344-3.953-2.625.922-.187 3.609 1.39 2.75-2.703Zm18.733 19.48q-1.816.173-3.626.406-1.783.235-3.577.547l-.11-.75 1.172-.234q.562-.106.813-.266.248-.17.25-.656.012-.481-.11-1.438l-1.468-11.046c-.086-.656-.171-1.129-.265-1.421q-.127-.452-.406-.563c-.188-.07-.477-.094-.875-.062l-1.172.078-.094-.735q1.814-.17 3.594-.406a80 80 0 0 0 3.609-.547l.094.735-1.188.234q-.55.093-.797.281-.253.188-.265.656-.02.456.11 1.438l1.466 11.046q.124.954.266 1.422.14.468.421.562.28.082.86.047l1.187-.078Zm21.75-17.994-1.079.14q-.563.049-.828.22-.253.174-.312.64-.048.456 0 1.422l.687 13.688c0 .117.016.265.047.453q.06.27.078.468l-2.265-.296-12.438-13.97.563 11.47c.039.648.086 1.124.14 1.437.063.305.188.5.375.594q.28.13.875.14l1.078.032.032.75c-.993 0-1.98.023-2.97.062-.937.055-1.898.133-2.874.235l-.032-.75 1.093-.141q.545-.076.813-.235c.176-.101.285-.312.328-.624q.06-.468 0-1.438l-.546-11.125c-.031-.645-.086-1.113-.156-1.406q-.095-.451-.375-.61-.282-.152-.844-.14l-1.11-.016-.03-.75h.5l1.203-.031q.702-.012 1.28-.047.39-.013.86-.078.47-.061.469-.063l12.656 14.125-.578-11.671q-.047-.967-.14-1.422-.094-.452-.376-.594-.282-.153-.859-.14l-1.11-.032-.03-.75c.976 0 1.937-.02 2.874-.062a55 55 0 0 0 2.97-.235Zm21.765 17.586a79 79 0 0 0-3.156-.25 60 60 0 0 0-3.437-.125l.03-.75 1.189-.015c.313-.012.555-.051.735-.125.187-.07.285-.172.297-.297q-.001-.187-.079-.516a17 17 0 0 0-.343-1.11l-.985-2.905-7.14-.422-.782 1.625a18 18 0 0 0-.734 1.609q-.27.722-.281.969-.019.299.25.468.264.159.89.235l.907.125-.032.75a66 66 0 0 0-2.984-.25 45 45 0 0 0-2.704-.078l.031-.75.938-.016q.81-.012 1.39-1.125l6.188-12.125q.81-1.53 1.094-2.203c.195-.445.297-.672.297-.672l.796.031 5.172 14.422c.258.68.469 1.203.625 1.578q.246.564.469.782a.9.9 0 0 0 .563.265l.828.125Zm-6.125-7.11-2.703-7.546-3.578 7.188Zm37 2.85a10.4 10.4 0 0 1-1.547 3.64c-.762 1.137-1.668 2.04-2.721 2.719q-3.016 1.967-7.64 1a58 58 0 0 1-1.78-.407 55 55 0 0 0-1.734-.406 99 99 0 0 0-3.391-.624l.11-.562.843-.234q.657-.188.89-1.313l2.392-11.517q.187-.948.204-1.406.03-.45-.204-.672-.234-.216-.796-.344l-.954-.28.157-.735a158 158 0 0 0 4.983 1.125q1.077.22 2.14.406 1.061.175 2.11.39 2.578.533 4.281 1.845 1.701 1.313 2.407 3.218c.476 1.262.562 2.649.25 4.156m-2.72.093q.749-3.622-.624-5.703-.786-1.185-2.297-1.906c-1-.477-2.172-.86-3.516-1.14a24 24 0 0 0-1.561-.281q-.674-.093-1.172-.11l-3 14.47q.45.202 1.047.359.59.168 1.422.344 1.372.295 2.406.343a7.2 7.2 0 0 0 1.875-.14 7.3 7.3 0 0 0 1.718-.626q2.842-1.484 3.703-5.61m-.64-13.53-3.937 2.625-1.641-.344-2.61-3.984.922.203 2.782 2.719 3.594-1.407Zm26.632 13.443-1.079-.266q-.532-.153-.843-.078-.3.082-.516.484-.222.41-.516 1.329l-2.187 6.827q-1.237 3.89-3.375 4.984-2.08 1.09-5.64-.047-3.582-1.141-4.532-3.061-.878-1.766-.016-4.486l2.688-8.39q.293-.936.36-1.391.075-.467-.141-.687-.205-.235-.766-.422l-1.094-.438.219-.719c1.164.43 2.313.82 3.438 1.172q1.748.563 3.484 1.031l-.219.72-1.156-.282q-.55-.153-.86-.094-.298.065-.515.469-.223.408-.516 1.344l-2.594 8.14c-.492 1.512-.468 2.73.063 3.657q.795 1.373 3.266 2.172 2.56.81 4.172.015c1.07-.531 1.874-1.633 2.406-3.297l2.422-7.578q.293-.92.375-1.36.076-.45-.141-.687-.204-.248-.766-.437l-.984-.406.219-.72q1.359.519 2.718.954c.938.305 1.883.578 2.844.828Zm12.338 23.132a15 15 0 0 0-1.61-.781 15 15 0 0 0-1.577-.594l-.391-1.64-1.781-7.438a10 10 0 0 0-.188-.828 9 9 0 0 0-.297-.937l.157-.36.672.297q1.967.845 3.53.438 1.56-.422 2.25-1.985.622-1.464 0-2.672-.609-1.218-2.374-1.969a10 10 0 0 0-1.14-.406 10 10 0 0 0-1.22-.281l-5.124 11.89q-.393.89-.516 1.36-.11.468.078.688.188.217.703.5l1.063.546-.297.688a67 67 0 0 0-3.313-1.516 63 63 0 0 0-3.36-1.36l.299-.686 1.123.39q.545.186.843.172.31-.001.563-.406.247-.423.64-1.313l4.409-10.233q.388-.89.5-1.328.124-.435-.063-.688-.19-.264-.719-.515l-.906-.485.297-.687q1.952.937 3.922 1.78 1.015.44 2.047.845 1.029.41 2.047.843 2.249.973 2.969 2.344c.476.906.484 1.902.015 2.985q-.861 2.015-3.234 2.53a8 8 0 0 1-1.39.126c-.43-.008-1-.067-1.72-.172l2.266 8.984q.093.373.344.64.247.266.781.548Zm8.68 4.588a90 90 0 0 0-6.453-3.36l.344-.656 1.078.469q.545.234.844.234.294.014.578-.359.293-.388.734-1.25l5.14-9.89q.453-.874.595-1.313.152-.45-.016-.703-.175-.265-.672-.547l-1.015-.61.343-.671a91 91 0 0 0 3.188 1.734q1.624.845 3.265 1.625l-.343.672-1.094-.485q-.534-.246-.844-.234-.298 0-.578.375-.282.362-.734 1.235l-5.141 9.89q-.44.855-.594 1.313-.159.469.016.703.187.247.672.547l1.031.625Zm16.009 2.713q-.924 1.514-2.468 2.219-1.548.703-3.406.515c-1.243-.117-2.48-.546-3.72-1.296q-1.827-1.096-3.17-3.016.543-.654.86-1.11.31-.467.734-1.187.077-.107.219-.344l.312-.53.672.421-.719 1.531q-.176.47.094 1.157.264.686.89 1.39.624.716 1.47 1.235c.738.445 1.476.703 2.218.765q1.123.094 2.047-.36.937-.44 1.515-1.39.715-1.188.329-2.36-.188-.608-.703-1.218-.518-.608-1.657-1.516-1.423-1.124-2.079-1.921c-.437-.532-.742-1.07-.906-1.625q-.392-1.36.547-2.907.841-1.39 2.187-2.047 1.341-.656 2.969-.515c1.082.086 2.145.437 3.188 1.062q.856.533 1.578 1.235.73.703 1.703 1.968-.657.768-1.125 1.375a18 18 0 0 0-.985 1.454l-.687-.407.625-1.312q.234-.482.187-.875-.033-.406-.406-1.016-.581-.997-1.906-1.812-1.409-.844-2.828-.516-1.409.315-2.219 1.656-.75 1.236-.328 2.297.42 1.066 2.234 2.5 1.078.862 1.735 1.484.655.61 1 1.126.341.517.484 1.093c.25.899.086 1.828-.484 2.797m6.438-15.172-4.579 1.156-1.437-.859-1.141-4.61.812.485 1.704 3.453 3.859-.094Zm13.391 25.126c-.805 1.094-1.75 1.96-2.844 2.61a9.6 9.6 0 0 1-3.469 1.25 9 9 0 0 1-3.703-.188q-1.875-.471-3.546-1.703-1.535-1.127-2.407-2.594a8.2 8.2 0 0 1-1.11-3.11 8.4 8.4 0 0 1 .235-3.343q.452-1.701 1.625-3.297 1.607-2.185 3.781-3.156a8.2 8.2 0 0 1 4.547-.64q2.372.327 4.656 2.015 2.232 1.629 3.25 3.656 1.013 2.033.766 4.219c-.156 1.445-.75 2.875-1.781 4.281m-2.578-.969c1.52-2.086 2.226-4.054 2.125-5.922q-.159-2.794-2.719-4.671-2.47-1.81-4.906-1.282c-1.617.344-3.106 1.446-4.469 3.297-1.055 1.43-1.734 2.852-2.047 4.266-.305 1.414-.25 2.726.156 3.937q.621 1.829 2.297 3.047 2.311 1.7 4.844.984 2.544-.702 4.719-3.656M338.7 68.22l-.594-.453q-.251-.201-.718-.11c-.313.055-.805.235-1.47.548L325.7 73.032q-.954.48-1.61.797-.655.326-1.218.64-.564.327-1.25.719l-.922-.827q.311-.627.547-1.172.246-.549.516-1.203.262-.657.609-1.625l4.234-11.625q.2-.56.172-.875a1.04 1.04 0 0 0-.297-.61l-.61-.64.5-.563a77 77 0 0 0 2.392 2.266q1.232 1.113 2.5 2.156l-.5.563-1.079-.891q-.391-.31-.671-.25-.283.048-.391.344l-4.828 12.594 11.25-5.657q.637-.325.86-.734.231-.422-.25-.89l-.923-.923.5-.562a38 38 0 0 0 1.953 1.86 54 54 0 0 0 2.016 1.733Zm3.098 27.67a67 67 0 0 0-2.063-2.39 61 61 0 0 0-2.375-2.516l.563-.5.843.813q.343.326.625.437.282.123.422 0a1.6 1.6 0 0 0 .297-.422q.17-.28.531-1.031l1.344-2.781-4.781-5.297-1.688.61q-.97.308-1.671.624c-.461.219-.75.38-.875.485a.46.46 0 0 0-.141.5q.075.31.469.812l.562.735-.562.5a56 56 0 0 0-1.953-2.283 47 47 0 0 0-1.876-1.952l.563-.5.688.64q.574.547 1.78.173l12.923-4.282a46 46 0 0 0 2.328-.796l.687-.282.532.594-6.454 13.89q-.438 1.015-.671 1.579-.222.575-.22.89-.002.31.22.579l.515.671Zm.64-9.375 3.39-7.265-7.608 2.61Zm11.5-9.171a.58.58 0 0 1-.484.156q-.269-.028-.953-.297l-3.939-1.657-.718-.782 4.562.844q.997.222 1.484.672a.8.8 0 0 1 .235.563.62.62 0 0 1-.188.5M66.203 321.072q-2.297 2.983-5.718 3.266c-1.024.093-2.141-.086-3.36-.532q-1.828-.675-3.562-2l-5.578-4.297.28-.375q1.203.797 1.735.72.545-.082 1.36-1.141l6.718-8.735q.844-1.09.766-1.594-.064-.513-1.14-1.53l.28-.36 5.313 4.094q4.154 3.186 4.61 6.796.386 2.954-1.704 5.688m-2.25-1.531c1.676-2.18 2.145-4.399 1.407-6.672q-.658-2.062-3.172-3.985-.626-.482-.953-.484-.317 0-.657.453l-7.672 10q-.375.469-.28.797c.062.227.288.492.687.797q2.436 1.875 4.484 2.156 3.468.435 6.156-3.062m15.926 15.139-3.171 2.969-11.36-7.14.25-.392c.813.414 1.398.582 1.766.5.363-.086.78-.493 1.25-1.235l5.859-9.328q.702-1.123.578-1.672-.11-.546-1.219-1.39l.25-.391 11.157 7.016-1.828 3.03-.532-.327c.414-1.051.516-1.828.297-2.328q-.313-.75-2.094-1.875l-2.828-1.782q-.422-.262-.656-.203c-.148.031-.312.196-.5.485l-2.922 4.673 3.25 2.03q1.278.814 1.906.72.621-.106 1.641-1.266l.484.297-3.062 4.86-.485-.298q.609-1.423.438-2.031-.174-.608-1.469-1.422l-3.25-2.031-3.25 5.172q-.361.574-.265.797.153.386 1.906 1.5l.562.343q2.248 1.42 3.547 1.485 1.294.076 3.156-1.125Zm24.245-.656q-1.126-.42-1.672-.327-.862.111-1.86 2.109l-5.875 11.64-.374-.187-3.657-17.11-4.375 8.688c-.561 1.117-.804 1.922-.718 2.422q.122.75 1.375 1.453l-.22.422-5.201-2.61.217-.42q1.418.59 2.063.28.639-.328 1.5-2.031l4.922-9.781q-.268-1.107-.547-1.516-.27-.42-.985-.781l.22-.422 3.796 1.906 3.11 15.016 3.765-7.453q1.031-2.045.61-2.813-.315-.497-1.297-1.094l.218-.422 5.203 2.61Zm14.863 9.943-.546-.219q.357-2.074-.094-2.86-.456-.778-2.422-1.546l-1.25-.484-4.625 11.812q-.503 1.267-.25 1.781.265.514 1.672 1.157l-.172.437-6.75-2.64.172-.438q1.465.48 1.969.234c.343-.156.71-.73 1.11-1.718l4.515-11.547-1.235-.485q-1.957-.762-2.812-.484-.86.27-2.031 2.016l-.563-.22 1.688-3.89 13.03 5.094Zm16.477 17.636-6.094-1.736.125-.453c.656.188 1.125.242 1.406.172.25-.063.414-.23.5-.5q.153-.564 0-1.75l-.312-2.563-6.25-1.78-1.89 2.484q-.347.439-.47.875c-.187.645.258 1.126 1.344 1.438l-.125.453-4.718-1.343.125-.453q.874.189 1.532-.297.655-.497 2.547-2.78l8.312-10.298.484.14 2.047 15.25q.247 1.514.5 1.954.264.452 1.063.734Zm-4.422-7.891-.89-7.344-4.626 5.766Zm5.422-13.125q-.14.487-.985.562l-4.53.797-1.032-.297 4.594-1.78q.703-.282 1.218-.142.904.252.735.86m18.562 20.437-1.983 4.016-13.111-2.453.079-.453q1.357.143 1.813-.172.467-.326.718-1.625l2.016-10.828q.232-1.295-.063-1.75-.299-.468-1.64-.86l.094-.453 6.874 1.297-.093.453q-1.454-.187-1.953.14-.486.33-.72 1.626l-2.154 11.531q-.11.627.218.89.34.248 1.688.516l1.625.297q3.058.562 4.594-.687.56-.451 1.39-1.594Zm22.253-9.421q-1.205.018-1.672.312-.766.41-.953 2.625l-1.187 13-.422-.031-9.688-14.578-.875 9.703q-.175 1.861.22 2.515.386.645 1.812.844l-.047.469-5.797-.517.047-.468q1.547.033 2.015-.5.48-.546.657-2.438l.984-10.905q-.675-.937-1.078-1.219-.391-.293-1.188-.36l.047-.468 4.235.375 8.406 12.812.765-8.328c.133-1.508-.015-2.453-.453-2.828-.336-.226-.875-.41-1.625-.547l.047-.469 5.797.532Zm10.498 16.022-7.361-.094v-.469q1.562-.011 1.986-.406.434-.404.453-1.797l.14-11.015q.014-1.374-.39-1.75-.41-.387-1.985-.516v-.469l7.36.094v.469q-1.566.065-2 .453c-.293.25-.446.836-.453 1.75l-.141 11.015q-.018 1.36.422 1.782c.289.28.945.445 1.968.484Zm.406-20.469q0 .502-.797.813l-4.172 1.921h-1.078l3.953-2.922c.426-.312.813-.46 1.156-.453q.95.001.938.641m30.782 18.213-6.86.75-.047-.469q1.407-.263 1.735-.719.327-.45.156-2.015l-.531-4.797-7.47.828.563 5.078c.094.875.286 1.43.579 1.656q.45.346 1.843.313l.047.468-6.86.766-.046-.469q1.406-.262 1.734-.718.328-.468.156-2.032l-1.17-10.671q-.158-1.326-.578-1.657c-.274-.226-.883-.332-1.844-.312l-.047-.469 6.86-.766.046.47q-1.407.282-1.75.718-.329.424-.172 1.75l.516 4.781 7.469-.828-.516-4.781q-.157-1.326-.578-1.672-.41-.341-1.844-.313l-.047-.468 6.86-.75.046.468q-1.408.282-1.75.703-.328.425-.171 1.75l1.203 10.954c.094.875.285 1.43.578 1.656q.45.345 1.844.328Zm18.08-19.92a2.73 2.73 0 0 0-1.422.937q-.55.692-1.328 2.531l-2.422 6.266 1.016 4.703c.195.918.469 1.477.812 1.672q.515.284 2.172-.031l.094.453-7.437 1.593-.094-.453q1.638-.435 1.953-.922c.207-.32.195-1.016-.031-2.078l-.907-4.22-4.156-3.968c-1.593-1.444-2.633-2.327-3.125-2.639q-.75-.468-1.64-.313l-.094-.469 6.797-1.453.093.469a7 7 0 0 1-.593.156q-1.094.281-.953.938.092.455.624.968l4.75 4.61 2.297-6.22q.218-.62.141-.983c-.062-.282-.227-.446-.484-.5q-.393-.094-1.36.078l-.094-.47 5.297-1.124Zm21.803 1.144q-1.018.423-1.204.875-.187.44.141 1.484l1.547 4.781q-.533.845-2.219 1.97-1.676 1.112-3.187 1.593-3.987 1.282-7.25-.453c-1.75-.945-2.989-2.563-3.72-4.844q-1.17-3.608.36-6.672 1.516-3.06 5.047-4.203a11 11 0 0 1 3.39-.515q.705.046 1.126-.094a1.14 1.14 0 0 0 .594-.438 1.15 1.15 0 0 0 .218-.672l.516-.172 1.797 4.938-.531.172q-1.407-1.671-2.579-2.235-1.828-.826-3.828-.187-2.502.816-3.515 3.125-.503 1.113-.485 2.766a11.4 11.4 0 0 0 .563 3.297c.707 2.187 1.816 3.742 3.328 4.656q2.28 1.36 5.156.437 1.28-.404 2.078-1.125.81-.715.64-1.297l-1.233-3.812q-.471-1.465-1.094-1.594c-.305-.094-.867-.039-1.688.156l-.125-.421 6.031-1.938Zm13.552 3.408-6.812 2.797-.172-.437q1.407-.64 1.64-1.157.246-.528-.28-1.812l-4.172-10.188q-.515-1.278-1.047-1.468-.528-.201-2.016.297l-.187-.422 6.812-2.797.188.422c-.95.449-1.504.851-1.672 1.203-.164.343-.079.945.265 1.797l4.172 10.187q.516 1.253 1.078 1.469.577.205 2.032-.328Zm15.23-11.899.875 4.234-12.015 5.969-.203-.422q1.169-.701 1.343-1.25.17-.545-.406-1.719l-4.89-9.875q-.576-1.17-1.094-1.359-.528-.188-1.828.328l-.22-.422 11.798-5.86 1.656 3.157-.563.281q-1.02-1.357-1.828-1.484-.815-.124-2.703.813l-3 1.484q-.433.221-.516.437-.077.222.157.672l2.453 4.954 3.422-1.687q1.358-.685 1.61-1.281c.163-.395.093-1.082-.22-2.063l.516-.25 2.547 5.156-.516.25c-.593-.843-1.101-1.316-1.515-1.421q-.612-.17-1.985.515l-3.421 1.687 2.734 5.484q.293.61.515.64.435.083 2.282-.843l.609-.297q2.372-1.17 3.11-2.234c.5-.72.726-1.817.687-3.297Zm12.131-21.032c-.648.492-1.031.906-1.156 1.25q-.375.785.797 2.688l6.875 11.078-.36.234-16.5-5.828 5.126 8.281q.996 1.595 1.687 1.875c.469.188 1.117.055 1.953-.406l.25.406-4.953 3.063-.25-.406q1.265-.89 1.328-1.61.06-.715-.953-2.344l-5.766-9.312q-1.09-.34-1.578-.328-.48.016-1.172.437l-.25-.406 3.61-2.234 14.437 5.172-4.406-7.094q-1.19-1.953-2.062-2-.597.033-1.61.547l-.25-.407 4.953-3.062Zm25.826.458-5.015 3.86-.281-.375q.795-.623.953-1.016.17-.358-.094-.703-.361-.468-1.39-1.047l-2.266-1.267-5.14 3.954.859 3.016q.14.533.422.89.621.798 1.968-.234l.281.375-3.89 2.985-.281-.376q.667-.56.656-1.39 0-.842-.703-3.719l-3.329-12.781.39-.297 13.485 7.406q1.358.706 1.875.766.515.064 1.218-.422Zm-8.984-1.156-6.437-3.64 1.89 7.14Zm0 0"/></svg>